<svg width="18" height="19" viewBox="0 0 18 19" fill="none" xmlns="http://www.w3.org/2000/svg">
<path d="M16.8758 9.68466C16.8758 9.00119 16.8222 8.50244 16.7062 7.98523H9.16156V11.0701H13.5901C13.5008 11.8367 13.0187 12.9912 11.9473 13.767L11.9322 13.8703L14.3177 15.7819L14.483 15.799C16.0008 14.3489 16.8758 12.2153 16.8758 9.68466" fill="#E48700"/>
<path d="M9.16108 17.8125C11.3307 17.8125 13.1521 17.0735 14.4825 15.799L11.9468 13.767C11.2682 14.2565 10.3575 14.5982 9.16108 14.5982C7.0361 14.5982 5.23255 13.1482 4.58963 11.1439L4.4954 11.1522L2.01495 13.138L1.98251 13.2313C3.30392 15.9467 6.0182 17.8125 9.16108 17.8125Z" fill="#34A853"/>
<path d="M4.5901 11.144C4.42046 10.6268 4.32229 10.0726 4.32229 9.50001C4.32229 8.92733 4.42046 8.37319 4.58118 7.85597L4.57668 7.74582L2.06515 5.72815L1.98298 5.76858C1.43836 6.8954 1.12585 8.16077 1.12585 9.50001C1.12585 10.8392 1.43836 12.1045 1.98298 13.2314L4.5901 11.144" fill="#FBBC05"/>
<path d="M9.16112 4.40164C10.67 4.40164 11.6879 5.07588 12.2682 5.63932L14.5361 3.34875C13.1433 2.00952 11.3307 1.1875 9.16112 1.1875C6.01823 1.1875 3.30393 3.05318 1.98251 5.76857L4.58072 7.85596C5.23257 5.85173 7.03613 4.40164 9.16112 4.40164" fill="#EB4335"/>
</svg>
