<svg xmlns="http://www.w3.org/2000/svg" width="48" height="48" viewBox="0 0 64 64"><defs><style>.cls-1{fill:#ffec00;}.cls-1</style></defs><title>prior logo</title><path class="cls-1" d="M287.28,570.2a25.36,25.36,0,1,1,25.36-25.35A25.3,25.3,0,0,1,287.28,570.2Z" transform="translate(-260.74 -518.49)"/><path class="cls-1" d="M287.28,570.2a25.36,25.36,0,1,1,25.36-25.35A25.3,25.3,0,0,1,287.28,570.2Z" transform="translate(-260.74 -518.49)"/><path class="cls-2" d="M295.2,519.69a24,24,0,0,0-7.72-1.2h-.19a26.45,26.45,0,1,0,0,52.91h.19A24.42,24.42,0,0,0,295.2,570a26.38,26.38,0,0,0,0-50.31Zm0,49.33a24.49,24.49,0,0,1-7.72,1.19h-.19a25.36,25.36,0,1,1,0-50.72h.19a24,24,0,0,1,7.72,1.4,25.32,25.32,0,0,1,0,48.13Z" transform="translate(-260.74 -518.49)"/><path class="cls-2" d="M304.91,532.36a14.61,14.61,0,0,1,1,5c0,7.32-7.33,10.29-10.3,10.1h-.4c-.38,0-.59-.19-.59-.39,0-.6.2-1,.59-1a.64.64,0,0,1,.4-.19c.8,0,1,.19,1.78.19s1-.6,1.39-1.4a2.41,2.41,0,0,0,.58-1.78c0-1.58-1.59-4.75-2.37-7.72,0,.79,0,2.56-.78,2.56a1.09,1.09,0,0,1-1-.59c-.38-.59-.78-1.38-1.17-2a9.87,9.87,0,0,1,0,2.37c0,.78-.21,1.38-.6,1.38s-1-.6-1-2,.19-2.39.19-4.76a8.17,8.17,0,0,0-5.15-7.72,9.29,9.29,0,0,0-2.37-.4c-6.93,0-7.73,6.33-8.11,6.52s-.8-1.17-3-1.17c-2.57,0-5.35,3.37-6.33,5.36A21.86,21.86,0,0,0,265.09,545a22.11,22.11,0,0,0,22.19,22h.19a19.73,19.73,0,0,0,7.72-1.59A21.74,21.74,0,0,0,309.27,545a22.15,22.15,0,0,0-4.16-12.87Zm-17.43,11.49a11.55,11.55,0,0,1-2.57-7.34c0-1.37.41-1.58.8-1.58.8,0,1.19,1.19,1.77,2.77a4,4,0,0,0,.8,1.59c.6,1.39,1,2.18,1.58,3.57a7.62,7.62,0,0,0,.2,3A31.93,31.93,0,0,1,287.47,543.85Zm7.72,13.66a4.65,4.65,0,0,1-4.55-4.75,5.91,5.91,0,0,1,1-3c1,1.38,2.38,2.38,3.55,1.38l.2-.2c1-1,.2-2.37-.2-2.77a4.66,4.66,0,0,1,4.76,4.56A4.82,4.82,0,0,1,295.2,557.52Z" transform="translate(-260.74 -518.49)"/></svg>