<svg width="72" height="110" viewBox="0 0 72 110" fill="none" xmlns="http://www.w3.org/2000/svg">
<g filter="url(#filter0_d_28_181)">
<mask id="path-1-inside-1_28_181" fill="white">
<path fill-rule="evenodd" clip-rule="evenodd" d="M56.4845 56.5853C63.5219 50.7153 68 41.8806 68 32C68 14.3269 53.6731 0 36 0C18.3269 0 4 14.3269 4 32C4 41.8806 8.4781 50.7153 15.5155 56.5853L36 102L56.4845 56.5853Z"/>
</mask>
<path fill-rule="evenodd" clip-rule="evenodd" d="M56.4845 56.5853C63.5219 50.7153 68 41.8806 68 32C68 14.3269 53.6731 0 36 0C18.3269 0 4 14.3269 4 32C4 41.8806 8.4781 50.7153 15.5155 56.5853L36 102L56.4845 56.5853Z" fill="#FFEC00"/>
<path d="M56.4845 56.5853L55.844 55.8173L55.6675 55.9646L55.573 56.1741L56.4845 56.5853ZM15.5155 56.5853L16.427 56.1741L16.3325 55.9646L16.156 55.8173L15.5155 56.5853ZM36 102L35.0884 102.411L36 104.432L36.9116 102.411L36 102ZM67 32C67 41.5715 62.6633 50.1293 55.844 55.8173L57.1251 57.3532C64.3805 51.3014 69 42.1897 69 32H67ZM36 1C53.1208 1 67 14.8792 67 32H69C69 13.7746 54.2254 -1 36 -1V1ZM5 32C5 14.8792 18.8792 1 36 1V-1C17.7746 -1 3 13.7746 3 32H5ZM16.156 55.8173C9.33667 50.1293 5 41.5715 5 32H3C3 42.1897 7.61954 51.3014 14.8749 57.3532L16.156 55.8173ZM36.9116 101.589L16.427 56.1741L14.6039 56.9964L35.0884 102.411L36.9116 101.589ZM55.573 56.1741L35.0884 101.589L36.9116 102.411L57.3961 56.9964L55.573 56.1741Z" fill="black" mask="url(#path-1-inside-1_28_181)"/>
<path d="M53.6577 19.5461C54.279 21.1788 54.6161 22.911 54.6536 24.6636C54.6536 32.1555 47.3535 35.1953 44.3956 35.0009H43.9972C43.6188 35.0009 43.4096 34.8064 43.4096 34.6017C43.4096 33.9876 43.6088 33.5782 43.9972 33.5782C44.1033 33.4667 44.2445 33.3978 44.3956 33.3837C45.1923 33.3837 45.3915 33.5782 46.1684 33.5782C46.9452 33.5782 47.1643 32.9641 47.5527 32.1453C47.7623 31.8966 47.9215 31.6073 48.0207 31.2944C48.1199 30.9815 48.1571 30.6514 48.1303 30.3235C48.1303 28.7064 46.5468 25.4619 45.77 22.4221C45.77 23.2307 45.77 25.0423 44.9931 25.0423C44.7886 25.0483 44.5867 24.9948 44.4104 24.888C44.2342 24.7811 44.091 24.6253 43.9972 24.4384C43.6188 23.8346 43.2204 23.026 42.832 22.3915C42.9268 23.1971 42.9268 24.0115 42.832 24.8171C42.832 25.6154 42.6229 26.2295 42.2344 26.2295C41.846 26.2295 41.2385 25.6155 41.2385 24.1826C41.2385 22.7497 41.4277 21.7364 41.4277 19.3107C41.4537 17.6145 40.9769 15.9503 40.0608 14.5391C39.1448 13.1278 37.8327 12.0362 36.2987 11.4094C35.5325 11.1684 34.7391 11.0309 33.9384 11C27.0366 11 26.2399 17.4787 25.8615 17.6732C25.483 17.8676 25.0647 16.4757 22.8737 16.4757C20.3142 16.4757 17.5455 19.9248 16.5695 21.9615C14.8861 25.199 14.0037 28.8124 14 32.4831C14.029 38.4794 16.3727 44.2188 20.5163 48.4407C24.6599 52.6625 30.2647 55.0216 36.0996 54.9999H36.2888C38.932 54.9944 41.5471 54.4409 43.9773 53.3725C48.1078 51.7744 51.6644 48.9172 54.1706 45.1837C56.6768 41.4502 58.0129 37.0187 57.9999 32.4831C57.9891 27.7558 56.5405 23.1502 53.8569 19.3107L53.6577 19.5461ZM36.2987 31.306C34.6262 29.1812 33.7217 26.5265 33.7392 23.7936C33.7392 22.3915 34.1475 22.1765 34.5359 22.1765C35.3327 22.1765 35.7211 23.3945 36.2987 25.0116C36.442 25.6087 36.7143 26.1648 37.0955 26.6389C37.693 28.0616 38.0914 28.8701 38.669 30.2928C38.5363 31.3197 38.604 32.3635 38.8682 33.3632C37.9747 32.7234 37.1137 32.0367 36.2888 31.306H36.2987ZM43.9873 45.2869C43.3791 45.2736 42.7794 45.1373 42.2224 44.8858C41.6655 44.6342 41.1623 44.2724 40.7415 43.8209C40.3207 43.3694 39.9905 42.8372 39.7699 42.2546C39.5493 41.6719 39.4426 41.0504 39.4558 40.4254C39.5102 39.3279 39.8545 38.2664 40.4517 37.3549C41.4477 38.7673 42.822 39.7908 43.9873 38.7673L44.1864 38.5626C45.1824 37.5391 44.3856 36.1369 43.9873 35.7275C44.5968 35.7139 45.2029 35.8239 45.7711 36.0511C46.3392 36.2783 46.8582 36.6184 47.2984 37.0518C47.7387 37.4852 48.0915 38.0035 48.3368 38.5771C48.582 39.1507 48.7149 39.7682 48.7279 40.3946C48.7201 41.6871 48.2191 42.9249 47.3326 43.8417C46.4461 44.7585 45.2449 45.2811 43.9873 45.2972V45.2869Z" fill="black"/>
<circle cx="36.5" cy="32.5" r="26" stroke="black"/>
</g>
<defs>
<filter id="filter0_d_28_181" x="0" y="0" width="72" height="110" filterUnits="userSpaceOnUse" color-interpolation-filters="sRGB">
<feFlood flood-opacity="0" result="BackgroundImageFix"/>
<feColorMatrix in="SourceAlpha" type="matrix" values="0 0 0 0 0 0 0 0 0 0 0 0 0 0 0 0 0 0 127 0" result="hardAlpha"/>
<feOffset dy="4"/>
<feGaussianBlur stdDeviation="2"/>
<feComposite in2="hardAlpha" operator="out"/>
<feColorMatrix type="matrix" values="0 0 0 0 0 0 0 0 0 0 0 0 0 0 0 0 0 0 0.25 0"/>
<feBlend mode="normal" in2="BackgroundImageFix" result="effect1_dropShadow_28_181"/>
<feBlend mode="normal" in="SourceGraphic" in2="effect1_dropShadow_28_181" result="shape"/>
</filter>
</defs>
</svg>
