<svg width="72" height="110" viewBox="0 0 72 110" fill="none" xmlns="http://www.w3.org/2000/svg">
<g filter="url(#filter0_d_30_202)">
<mask id="path-1-inside-1_30_202" fill="white">
<path fill-rule="evenodd" clip-rule="evenodd" d="M56.4845 56.5853C63.5219 50.7153 68 41.8806 68 32C68 14.3269 53.6731 0 36 0C18.3269 0 4 14.3269 4 32C4 41.8806 8.4781 50.7153 15.5155 56.5853L36 102L56.4845 56.5853Z"/>
</mask>
<path fill-rule="evenodd" clip-rule="evenodd" d="M56.4845 56.5853C63.5219 50.7153 68 41.8806 68 32C68 14.3269 53.6731 0 36 0C18.3269 0 4 14.3269 4 32C4 41.8806 8.4781 50.7153 15.5155 56.5853L36 102L56.4845 56.5853Z" fill="#F5F5F5"/>
<path d="M56.4845 56.5853L53.2819 52.7456L52.3993 53.4818L51.9267 54.5294L56.4845 56.5853ZM15.5155 56.5853L20.0733 54.5294L19.6007 53.4818L18.7181 52.7456L15.5155 56.5853ZM36 102L31.4422 104.056L36 114.161L40.5578 104.056L36 102ZM63 32C63 40.3351 59.2291 47.785 53.2819 52.7456L59.6872 60.4249C67.8147 53.6457 73 43.4261 73 32H63ZM36 5C50.9117 5 63 17.0883 63 32H73C73 11.5655 56.4345 -5 36 -5V5ZM9 32C9 17.0883 21.0883 5 36 5V-5C15.5655 -5 -1 11.5655 -1 32H9ZM18.7181 52.7456C12.7709 47.785 9 40.3351 9 32H-1C-1 43.4261 4.18529 53.6457 12.3128 60.4249L18.7181 52.7456ZM40.5578 99.9442L20.0733 54.5294L10.9576 58.6411L31.4422 104.056L40.5578 99.9442ZM51.9267 54.5294L31.4422 99.9442L40.5578 104.056L61.0424 58.6411L51.9267 54.5294Z" fill="#00AF27" mask="url(#path-1-inside-1_30_202)"/>
</g>
<path d="M43 44C42.8125 43.2188 42.3906 42.7969 41.7344 42.7344H39.25V17.1406H43V15.875H28.9375V17.1406H32.6875V42.7344H28.9375V44H43Z" fill="#00AF27"/>
<defs>
<filter id="filter0_d_30_202" x="0" y="0" width="72" height="110" filterUnits="userSpaceOnUse" color-interpolation-filters="sRGB">
<feFlood flood-opacity="0" result="BackgroundImageFix"/>
<feColorMatrix in="SourceAlpha" type="matrix" values="0 0 0 0 0 0 0 0 0 0 0 0 0 0 0 0 0 0 127 0" result="hardAlpha"/>
<feOffset dy="4"/>
<feGaussianBlur stdDeviation="2"/>
<feComposite in2="hardAlpha" operator="out"/>
<feColorMatrix type="matrix" values="0 0 0 0 0 0 0 0 0 0 0 0 0 0 0 0 0 0 0.25 0"/>
<feBlend mode="normal" in2="BackgroundImageFix" result="effect1_dropShadow_30_202"/>
<feBlend mode="normal" in="SourceGraphic" in2="effect1_dropShadow_30_202" result="shape"/>
</filter>
</defs>
</svg>
